<svg id="Layer_1" enable-background="new 0 0 512.907 512.907" height="512" viewBox="0 0 512.907 512.907" width="512" xmlns="http://www.w3.org/2000/svg" xmlns:xlink="http://www.w3.org/1999/xlink"><linearGradient id="SVGID_1_" gradientUnits="userSpaceOnUse" x1="256.453" x2="256.453" y1="0" y2="512.907"><stop offset="0" stop-color="#8df49b"/><stop offset="1" stop-color="#589cf9"/></linearGradient><path d="m512.453 234v129h-40v-59.635l-118.48 118.858-49.287-48.703-134.859 139.387-28.747-27.813 162.967-168.439 49.713 49.123 91.486-91.778h-62.792v-40zm-282 105v-30.753c8.522-3.046 16.377-8.029 23.032-14.744 11.587-11.691 17.968-27.01 17.968-43.137 0-15.636-6.501-29.292-19.324-40.588-9.384-8.268-20.875-14.257-31.988-20.049l-.54-.281c-18.869-9.835-25.148-14.991-25.148-26.133 0-7.492 7.58-14.314 15.903-14.314 8.183 0 15.097 6.411 15.097 14h40c0-23.198-15.005-43.023-36-50.651v-32.35h-40v33.106c-20.301 8.231-35 27.904-35 50.209 0 37.282 29.208 52.507 46.658 61.603l.542.282c20.257 10.558 29.8 16.482 29.8 25.166 0 11.381-9.858 21.365-21.097 21.365-11.135 0-20.903-10.092-20.903-21.596h-40c0 26.377 17.412 49.507 41 58.064v30.801zm-41.979 39.582c-83.393-10.813-148.021-82.291-148.021-168.582 0-93.738 76.262-170 170-170 88.342 0 161.15 67.738 169.242 154h40.153c-8.201-108.348-98.983-194-209.395-194-115.794 0-210 94.206-210 210 0 96.778 65.811 178.461 155.026 202.684zm123.979 133.418h40v-35.045l-40-39.526zm-80 0h40v-47.639l-40 41.343zm240 0h40v-109h-40zm-80 0h40v-111.734l-40 40z" fill="url(#SVGID_1_)"/></svg>